<svg width="38" height="38" viewBox="0 0 38 38" fill="none" xmlns="http://www.w3.org/2000/svg">
<rect width="38" height="38" rx="19" fill="#313D4C"/>
<path fill-rule="evenodd" clip-rule="evenodd" d="M18.9982 10.5029C17.1071 10.5037 15.2671 11.1171 13.7538 12.2512C12.2406 13.3854 11.1355 14.9794 10.6041 16.7943C10.0727 18.6093 10.1437 20.5475 10.8063 22.3188C11.4689 24.09 12.6875 25.5989 14.2796 26.6194C15.8717 27.64 17.7517 28.1173 19.6378 27.9798C21.5239 27.8423 23.3147 27.0974 24.742 25.8567C26.1693 24.6161 27.1562 22.9464 27.5549 21.0978C27.9536 19.2492 27.7427 17.3211 26.9537 15.6024C26.8678 15.3935 26.8661 15.1594 26.9489 14.9492C27.0317 14.739 27.1926 14.569 27.3979 14.4747C27.6032 14.3804 27.837 14.3692 28.0504 14.4433C28.2638 14.5175 28.4402 14.6714 28.5427 14.8727C29.4894 16.9352 29.7425 19.249 29.2638 21.4673C28.7852 23.6857 27.6007 25.6894 25.8878 27.1781C24.1749 28.6668 22.0258 29.5605 19.7623 29.7252C17.4989 29.89 15.243 29.317 13.3325 28.092C11.4221 26.8671 9.95992 25.0561 9.16507 22.9305C8.37023 20.8048 8.28548 18.4788 8.92352 16.3009C9.56157 14.123 10.8881 12.2104 12.7043 10.8497C14.5206 9.48897 16.7288 8.75332 18.9982 8.75293V10.5029Z" fill="white"/>
<path d="M18.9982 13.0683V6.18734C18.9982 6.1042 19.0219 6.0228 19.0665 5.95266C19.1112 5.88252 19.1748 5.82655 19.2501 5.79129C19.3254 5.75604 19.4092 5.74296 19.4916 5.75359C19.5741 5.76423 19.6518 5.79813 19.7157 5.85134L23.8457 9.29184C24.0557 9.46684 24.0557 9.78884 23.8457 9.96384L19.7157 13.4043C19.6518 13.4575 19.5741 13.4914 19.4916 13.5021C19.4092 13.5127 19.3254 13.4996 19.2501 13.4644C19.1748 13.4291 19.1112 13.3732 19.0665 13.303C19.0219 13.2329 18.9982 13.1515 18.9982 13.0683Z" fill="white"/>
</svg>
